<?xml version="1.0" standalone="no"?>
<!DOCTYPE svg PUBLIC "-//W3C//DTD SVG 20010904//EN"
 "http://www.w3.org/TR/2001/REC-SVG-20010904/DTD/svg10.dtd">
<svg version="1.0" xmlns="http://www.w3.org/2000/svg"
 width="260.000000pt" height="260.000000pt" viewBox="0 0 260.000000 260.000000"
 preserveAspectRatio="xMidYMid meet">
<metadata>
Created by potrace 1.11, written by Peter Selinger 2001-2013
</metadata>
<g transform="translate(0.000000,260.000000) scale(0.100000,-0.100000)"
fill="#000000" stroke="none">
<path d="M1310 2483 c0 -7 -14 -11 -37 -9 -35 2 -126 -7 -183 -17 -29 -6 -103
-20 -110 -22 -3 -1 -18 -7 -33 -13 -16 -7 -33 -12 -38 -12 -10 0 -78 -28 -138
-58 -34 -17 -127 -73 -146 -89 -5 -5 -26 -20 -45 -33 -19 -13 -40 -29 -46 -35
-6 -5 -26 -24 -45 -41 -19 -16 -52 -52 -74 -79 -22 -26 -45 -53 -50 -59 -17
-18 -83 -121 -96 -149 -7 -15 -16 -24 -22 -20 -6 3 -7 1 -3 -5 4 -6 -2 -28
-12 -49 -23 -45 -70 -183 -77 -227 -3 -17 -8 -38 -10 -46 -9 -29 -16 -104 -17
-182 -1 -43 -5 -81 -10 -84 -4 -3 -8 -11 -8 -17 0 -7 4 -6 10 3 7 11 10 5 11
-25 3 -119 50 -295 111 -420 53 -106 139 -225 223 -309 45 -44 89 -86 96 -91
8 -6 32 -24 54 -40 22 -17 42 -32 45 -35 3 -3 35 -21 72 -40 36 -19 64 -39 61
-44 -3 -5 -2 -6 3 -3 6 3 55 -10 110 -29 54 -18 107 -34 117 -34 10 0 16 -4
13 -8 -2 -4 10 -8 27 -8 18 -1 59 -4 92 -8 107 -14 254 -9 350 10 11 2 32 6
48 9 15 3 49 13 75 21 26 9 54 18 62 19 8 2 16 4 18 5 1 2 5 3 10 4 28 5 210
106 267 148 78 58 216 194 242 239 10 16 21 29 25 29 4 0 8 4 8 10 0 8 38 70
58 95 4 6 8 12 9 15 0 3 14 35 32 72 17 37 41 104 55 149 13 45 25 77 27 70 3
-7 5 7 5 31 1 24 5 72 9 108 28 220 -17 459 -126 667 -37 71 -117 195 -131
201 -3 2 -18 19 -33 37 l-26 35 41 54 c22 31 40 59 40 64 0 10 -92 92 -149
133 l-33 24 -27 -34 c-14 -19 -35 -46 -46 -58 l-20 -24 -80 45 c-44 26 -83 46
-88 46 -4 0 -5 5 -1 12 5 7 3 8 -5 4 -7 -5 -24 -3 -39 3 -71 28 -88 34 -99 37
-7 1 -42 10 -79 19 -69 17 -145 28 -199 27 -16 0 -33 5 -37 12 -6 8 -8 8 -8
-1z"/>
</g>
</svg>
